<?xml version="1.0" encoding="UTF-8"?>
<svg id="Layer_1" xmlns="http://www.w3.org/2000/svg" version="1.1" viewBox="0 0 1024 1024">
  <!-- Generator: Adobe Illustrator 29.8.1, SVG Export Plug-In . SVG Version: 2.1.1 Build 2)  -->
  <rect x="-.118" y=".382" width="1024.118" height="1024.118" fill="#262626"/>
  <g>
    <polygon points="731.857 580.559 640.561 493.581 640.561 470.696 616.54 470.696 607.223 470.696 549.436 470.696 549.436 531.352 549.433 531.354 640.732 618.335 640.732 644.38 640.732 652.915 625.914 652.915 399.043 652.915 383.321 652.915 383.321 554.184 292.195 554.184 292.195 652.915 399.043 744.041 625.914 744.041 731.857 644.38 731.857 580.596 731.822 580.596 731.857 580.559" fill="#b4d836"/>
    <polygon points="292.025 444.323 383.321 531.302 383.321 554.187 407.342 554.187 416.659 554.187 474.447 554.187 474.447 493.531 474.449 493.528 383.151 406.547 383.151 380.502 383.151 371.967 397.969 371.967 624.839 371.967 640.562 371.967 640.562 470.698 731.687 470.698 731.687 371.967 624.839 280.842 397.969 280.842 292.025 380.502 292.025 444.286 292.061 444.286 292.025 444.323" fill="#b4d836"/>
  </g>
</svg>