<?xml version="1.0" encoding="UTF-8"?>
<svg id="Layer_1" xmlns="http://www.w3.org/2000/svg" version="1.1" viewBox="0 0 1024 1024">
  <!-- Generator: Adobe Illustrator 30.0.0, SVG Export Plug-In . SVG Version: 2.1.1 Build 123)  -->
  <rect x="-.059" y=".441" width="1024" height="1024" fill="#262626"/>
  <g>
    <polygon points="799.411 601.483 680.071 487.787 680.071 457.873 648.671 457.873 636.492 457.873 560.954 457.873 560.954 537.161 560.95 537.164 680.294 650.863 680.294 684.909 680.294 696.066 660.924 696.066 364.363 696.066 343.811 696.066 343.811 567.007 224.693 567.007 224.693 696.066 364.363 815.184 660.924 815.184 799.411 684.909 799.411 601.532 799.365 601.532 799.411 601.483" fill="#b4d836"/>
    <polygon points="224.471 423.398 343.811 537.096 343.811 567.01 375.211 567.01 387.39 567.01 462.93 567.01 462.93 487.722 462.932 487.718 343.589 374.018 343.589 339.973 343.589 328.816 362.959 328.816 659.519 328.816 680.072 328.816 680.072 457.875 799.189 457.875 799.189 328.816 659.519 209.699 362.959 209.699 224.471 339.973 224.471 423.35 224.518 423.35 224.471 423.398" fill="#b4d836"/>
  </g>
</svg>