<?xml version="1.0" encoding="UTF-8"?>
<svg id="Layer_1" xmlns="http://www.w3.org/2000/svg" version="1.1" viewBox="0 0 160.616 160.616">
  <!-- Generator: Adobe Illustrator 29.8.1, SVG Export Plug-In . SVG Version: 2.1.1 Build 2)  -->
  <path d="M70.391,22.949H24.916C15.38,32.486,10.034,37.832.497,47.368v65.88c9.537,9.536,14.883,14.883,24.419,24.419h45.474c9.536-9.536,14.882-14.883,24.419-24.419V47.368c-9.537-9.536-14.883-14.883-24.419-24.419h0ZM76.147,116.35H19.161V44.266h56.986v72.085h0Z" fill="#f4f3f7"/>
  <rect x="107.857" y="22.949" width="52.261" height="51.81" fill="#f4f3f7"/>
  <path d="M140.065,85.406h-12.153l-20.054,20.054v12.153c7.832,7.832,12.223,12.223,20.054,20.054h12.153c7.832-7.832,12.223-12.223,20.054-20.054v-12.153c-7.832-7.832-12.223-12.223-20.054-20.054Z" fill="#f4f3f7"/>
</svg>