<?xml version="1.0" encoding="UTF-8"?>
<svg id="Layer_1" xmlns="http://www.w3.org/2000/svg" version="1.1" viewBox="0 0 160.616 160.616">
  <!-- Generator: Adobe Illustrator 29.8.1, SVG Export Plug-In . SVG Version: 2.1.1 Build 2)  -->
  <path d="M31.756,7.455v75.125c8.817,8.817,13.761,13.761,22.578,22.578h51.949l22.578-22.578V7.455H31.756ZM111.222,85.012h-61.828V27.601h61.828v57.411Z" fill="#f4f3f7"/>
  <polygon points="22.578 63.661 0 41.083 0 27.601 22.578 27.601 22.578 63.661" fill="#f4f3f7"/>
  <polygon points="138.038 63.661 160.616 41.083 160.616 27.601 138.038 27.601 138.038 63.661" fill="#f4f3f7"/>
  <path d="M113.774,133.016h-24.647v-15.858h-17.638v15.858h-24.215c-4.619,4.619-7.208,7.208-11.827,11.827v8.318h90.154v-8.318c-4.619-4.619-7.208-7.208-11.827-11.827Z" fill="#f4f3f7"/>
</svg>