<?xml version="1.0" encoding="UTF-8"?>
<svg id="Layer_1" xmlns="http://www.w3.org/2000/svg" version="1.1" viewBox="0 0 1080 1080">
  <!-- Generator: Adobe Illustrator 29.8.1, SVG Export Plug-In . SVG Version: 2.1.1 Build 2)  -->
  <polygon points="736 600.71 654.634 523.191 654.634 502.794 633.224 502.794 624.92 502.794 573.418 502.794 573.418 556.854 573.416 556.857 654.786 634.378 654.786 657.591 654.786 665.198 641.579 665.198 439.38 665.198 425.368 665.198 425.368 577.204 344.152 577.204 344.152 665.198 439.38 746.413 641.579 746.413 736 657.591 736 600.745 735.969 600.745 736 600.71" fill="#f4f3f7"/>
  <polygon points="344 479.29 425.368 556.809 425.368 577.206 446.776 577.206 455.081 577.206 506.584 577.206 506.584 523.146 506.586 523.145 425.216 445.622 425.216 422.41 425.216 414.803 438.423 414.803 640.621 414.803 654.634 414.803 654.634 502.796 735.848 502.796 735.848 414.803 640.621 333.587 438.423 333.587 344 422.41 344 479.257 344.031 479.257 344 479.29" fill="#f4f3f7"/>
</svg>