<?xml version="1.0" encoding="UTF-8"?>
<svg id="Layer_1" xmlns="http://www.w3.org/2000/svg" version="1.1" viewBox="0 0 160.616 160.616">
  <!-- Generator: Adobe Illustrator 29.8.1, SVG Export Plug-In . SVG Version: 2.1.1 Build 2)  -->
  <g>
    <path d="M50.939,49.531h11.172c7.2-7.2,11.237-11.236,18.436-18.436v-11.172c-.793-.793-1.542-1.542-2.266-2.266-.242-.242-.49-.49-.726-.726h0c-5.461-5.46-9.306-9.305-15.444-15.444h-11.172c-7.2,7.2-11.236,11.236-18.436,18.436v11.172c7.2,7.2,11.237,11.236,18.436,18.436Z" fill="#f4f3f7"/>
    <polygon points="91.951 16.93 91.951 19.922 91.951 31.094 91.951 34.087 160.616 34.087 160.616 16.93 91.951 16.93" fill="#f4f3f7"/>
    <polygon points="21.1 31.094 21.1 19.922 21.1 16.93 0 16.93 0 34.087 21.1 34.087 21.1 31.094" fill="#f4f3f7"/>
    <path d="M76.645,111.086h-11.172l-15.444,15.444h0c-.944.944-1.931,1.931-2.992,2.993v11.172h0c.793.793,1.542,1.542,2.266,2.266.242.242.49.49.726.726h0c5.46,5.46,9.306,9.305,15.444,15.444h11.172c6.936-6.936,10.945-10.945,17.666-17.666.257-.257.505-.505.77-.77v-11.172c-.508-.508-.997-.997-1.475-1.474-6.307-6.307-10.27-10.27-16.962-16.962h0Z" fill="#f4f3f7"/>
    <polygon points="0 143.687 35.633 143.687 35.633 140.694 35.633 129.522 35.633 126.529 0 126.529 0 143.687" fill="#f4f3f7"/>
    <polygon points="106.485 129.522 106.485 140.694 106.485 143.687 160.616 143.687 160.616 126.529 106.485 126.529 106.485 129.522" fill="#f4f3f7"/>
  </g>
  <path d="M140.293,71.729l-1.71-1.71-9.218-9.218-9.218-9.218-1.948-1.948h-16.681l-1.948,1.948-9.355,9.355-9.082,9.082-1.71,1.71H0v17.158h79.424l1.71,1.71,9.082,9.082,9.355,9.354,1.948,1.948h16.681l1.948-1.948,9.218-9.218,9.218-9.218,1.71-1.71h20.323v-17.158h-20.324ZM125.638,96.088h-31.56v-31.56h31.56v31.56Z" fill="#f4f3f7"/>
</svg>