<?xml version="1.0" encoding="UTF-8"?>
<svg id="Layer_1" xmlns="http://www.w3.org/2000/svg" version="1.1" viewBox="0 0 144 144">
  <!-- Generator: Adobe Illustrator 29.8.1, SVG Export Plug-In . SVG Version: 2.1.1 Build 2)  -->
  <polygon points="144 0 0 0 0 0 .168 144 144 144 144 0" fill="#00ac4d"/>
  <g>
    <path d="M84.009,83.93c0,6.623-5.383,12.013-12.006,12.013s-12.013-5.39-12.013-12.013,5.39-12.006,12.013-12.006,12.006,5.383,12.006,12.006Z" fill="none"/>
    <path d="M72.003,40.492c-4.171,0-8.196.603-12.013,1.704v-9.851c0-8.667-7.053-15.719-15.712-15.719s-15.719,7.053-15.719,15.719v51.585c0,23.956,19.488,43.444,43.444,43.444s43.437-19.488,43.437-43.444-19.488-43.437-43.437-43.437ZM72.003,121.139c-20.52,0-37.209-16.696-37.209-37.209v-51.585c0-5.231,4.254-9.484,9.484-9.484s9.477,4.254,9.477,9.484v51.585c0,10.059,8.182,18.248,18.248,18.248s18.241-8.189,18.241-18.248-8.182-18.241-18.241-18.241c-4.6,0-8.798,1.711-12.013,4.524v-7.655c3.554-2.002,7.648-3.152,12.013-3.152,13.523,0,24.525,11.001,24.525,24.524s-11.001,24.531-24.525,24.531-24.531-11.001-24.531-24.531v-51.432c0-1.725-1.392-3.118-3.118-3.118s-3.118,1.392-3.118,3.118v51.432c0,16.966,13.8,30.766,30.766,30.766s30.76-13.8,30.76-30.766-13.8-30.76-30.76-30.76c-4.261,0-8.32.866-12.013,2.439v-6.879c3.769-1.289,7.808-2.002,12.013-2.002,20.513,0,37.202,16.689,37.202,37.202s-16.689,37.209-37.202,37.209ZM59.991,83.93c0-6.623,5.39-12.006,12.013-12.006s12.006,5.383,12.006,12.006-5.383,12.013-12.006,12.013-12.013-5.39-12.013-12.013Z" fill="#fff"/>
  </g>
</svg>