<?xml version="1.0" encoding="UTF-8"?>
<svg id="Layer_1" xmlns="http://www.w3.org/2000/svg" version="1.1" viewBox="0 0 144 144">
  <!-- Generator: Adobe Illustrator 29.8.1, SVG Export Plug-In . SVG Version: 2.1.1 Build 2)  -->
  <polygon points="144 0 0 0 0 0 .168 144 144 144 144 0"/>
  <path d="M50.5,47.35l44.7-28.5,6.6-4.2v-6.4l-22.5,14.5-24.5,15.7c-8.2,5.2-11.6,11.4-12.6,16.4,2.3-3,5.1-5.4,8.3-7.5ZM101.7,40.15v-6.3l-48.8,31.7c-6.4,4.7-10.7,11.1-10.7,19.2,0,7.1,3.3,13.8,8.9,18.1l50.6,32.9v-27.6l-40.1-25.2c-2.6-1.8-4.2-4.7-4.2-7.9,0-3.1,1.6-6.1,4.2-7.8l40.1-27.1ZM53.2,52.05c-7.6,4.8-10.4,10-10.9,16.1,2.9-3.4,6.3-6.4,10.1-8.9l49.3-31.9v-6.4l-48.5,31.1Z" fill="#f04a23"/>
</svg>