<?xml version="1.0" encoding="UTF-8"?>
<svg id="Layer_1" xmlns="http://www.w3.org/2000/svg" version="1.1" viewBox="0 0 144 144">
  <!-- Generator: Adobe Illustrator 29.8.1, SVG Export Plug-In . SVG Version: 2.1.1 Build 2)  -->
  <polygon points="144 0 0 0 0 0 .168 144 144 144 144 0" fill="#19315a"/>
  <g>
    <path d="M49.378,102.759c-4.796,0-9.592.03-14.388-.016-1.753-.017-3.526-.08-5.253-.355-5.21-.831-8.462-3.981-10.049-8.909-.87-2.702-1.243-5.511-1.255-8.34-.039-8.733-.036-17.467-.004-26.2.01-2.777.387-5.53,1.214-8.187,1.581-5.081,4.94-8.234,10.264-9.1,1.467-.239,2.965-.391,4.449-.396,10.871-.033,21.742-.02,32.613-.017,1.752,0,1.759.013,1.06,1.594-1.83,4.139-3.699,8.26-5.477,12.421-.424.993-.966,1.317-2.037,1.311-8.526-.044-17.052-.025-25.578-.024-.426,0-.853-.007-1.279.003-1.83.043-2.716.9-2.758,2.765-.04,1.81-.012,3.621-.012,5.432,0,6.39,0,12.781.001,19.171,0,.479-.024.964.037,1.436.17,1.302,1.014,2.093,2.332,2.204.477.04.959.016,1.438.016,10.445,0,20.889,0,31.334,0,.373,0,.746-.002,1.119,0,1.725.011,1.731.011,1.732,1.769.004,3.941.007,7.881-.002,11.822-.003,1.581-.017,1.597-1.597,1.599-5.968.007-11.937.003-17.905.002Z" fill="#e0e1e0"/>
    <path d="M125.574,64.622c0,6.604.067,13.208-.035,19.81-.039,2.542-.235,5.127-.758,7.608-1.333,6.318-5.561,9.912-12.01,10.514-.848.079-1.703.115-2.554.116-5.489.01-10.978.037-16.466-.017-1.59-.016-3.21-.129-4.761-.456-4.802-1.012-7.956-3.987-9.381-8.626-.602-1.961-.976-4.066-1.011-6.113-.133-7.826-.094-15.656-.1-23.484-.001-1.31.064-1.363,1.351-1.378,2.185-.026,4.37.006,6.555-.015,1.54-.015,1.58-.084.938-1.539-2.647-5.99-5.304-11.975-7.957-17.962-.151-.341-.285-.69-.451-1.023-.27-.54-.118-.774.487-.773,3.784.005,7.567.01,11.351-.007.699-.003.954.308.928.966-.019.478.001.958.001,1.438,0,13.154,0,26.308,0,39.462,0,.479-.019.96.012,1.438.123,1.907,1.035,2.804,2.934,2.81,4.903.016,9.806.018,14.708,0,1.926-.007,2.789-.892,2.865-2.844.019-.479.006-.958.006-1.438,0-13.207,0-26.415,0-39.622,0-.426.026-.854-.002-1.278-.046-.694.273-.971.945-.928.318.02.639,0,.959,0,3.144,0,6.288-.009,9.432.003,2.266.009,2.009-.226,2.013,2.09.011,7.083.004,14.166.003,21.249Z" fill="#e11e25"/>
  </g>
</svg>