<?xml version="1.0" encoding="UTF-8"?>
<svg id="Layer_1" xmlns="http://www.w3.org/2000/svg" version="1.1" viewBox="0 0 144 144">
  <!-- Generator: Adobe Illustrator 29.8.1, SVG Export Plug-In . SVG Version: 2.1.1 Build 2)  -->
  <polygon points="144 0 0 0 0 0 .168 144 144 144 144 0" fill="#ffdb00"/>
  <g>
    <g>
      <path d="M89.808,57.329c2.661,0,5.322-.048,7.981.021,1.215.031,2.468.143,3.626.481,2.105.615,3.517,2.066,4.032,4.21.283,1.176.451,2.402.477,3.61.066,3.052.028,6.107.015,9.161-.002.538-.032,1.088-.145,1.613-.341,1.58-1.335,2.298-2.918,2.168-1.39-.114-2.273-1.037-2.294-2.605-.045-3.392-.014-6.786-.021-10.179-.001-.542.032-1.099-.08-1.621-.165-.769-.581-1.421-1.475-1.455-1.226-.047-2.457-.064-3.68.01-.267.016-.643.429-.729.728-.128.44-.045.941-.045,1.416,0,3.664.033,7.329-.011,10.993-.025,2.11-1.665,3.244-3.591,2.565-.739-.26-1.342-.684-1.482-1.527-.1-.599-.266-1.202-.257-1.802.042-2.844.138-5.688.203-8.532.011-.472.003-.952-.069-1.418-.333-2.174-.67-2.483-2.909-2.465-3.482.027-2.976-.474-3.006,3.036-.028,3.257-.006,6.514-.007,9.772,0,1.314-.362,2.416-1.749,2.908-1.847.655-3.474-.39-3.626-2.337-.026-.337-.008-.678-.008-1.018,0-4.682.072-9.366-.03-14.046-.052-2.389.768-3.83,3.817-3.715,2.657.101,5.32.021,7.981.021v.008Z" fill="#161616"/>
      <path d="M54.385,69.363c0,2.915.041,5.831-.01,8.745-.059,3.347-1.553,5.549-4.321,6.437-.771.247-1.586.46-2.389.492-1.905.076-3.817.091-5.722.024-1.63-.057-2.724-1.244-2.688-2.73.04-1.613.974-2.524,2.788-2.59,1.565-.056,3.134-.008,4.702-.017.476-.003.972.03,1.42-.093.26-.071.442-.42.659-.644-.27-.13-.536-.366-.809-.373-1.498-.039-2.998-.012-4.497-.025-4.649-.042-7.243-2.588-7.28-7.161-.019-2.373.027-4.746-.01-7.118-.05-3.228,1.693-6.625,6.451-6.943,2.985-.2,5.996-.102,8.992-.034,1.826.042,2.667.968,2.699,2.879.051,3.05.014,6.101.015,9.151ZM48.99,67.956s.002,0,.003,0c0-1.425-.007-2.849.003-4.274.005-.667-.279-.995-.975-.988-1.432.014-2.865-.032-4.296.004-1.538.039-1.842.298-2.141,1.876-.474,2.496-.242,4.993.097,7.484.113.83.681,1.139,1.437,1.151,1.636.026,3.273.015,4.909.03.698.006.97-.354.966-1.009-.007-1.425-.002-2.849-.002-4.274Z" fill="#161616"/>
      <path d="M75.274,68.023c0,2.371.022,4.743-.013,7.114-.01.664-.089,1.356-.3,1.98-.372,1.104-1.254,1.5-2.401,1.492-1.148-.009-2.006-.426-2.372-1.535-.186-.566-.252-1.182-.293-1.78-.05-.742-.018-1.49-.019-2.235,0-.537-.159-.927-.798-.926-1.907.002-3.814,0-5.721-.004-.78-.001-.811.532-.84,1.108-.059,1.145-.044,2.307-.251,3.427-.239,1.297-.97,1.821-2.257,1.927-1.64.135-2.732-.79-2.863-2.435-.022-.269-.008-.542-.008-.813,0-3.523-.026-7.047.008-10.57.051-5.312,2.942-7.155,7.08-7.402,2.715-.162,5.448-.077,8.171-.011,1.96.047,2.823.953,2.862,2.94.05,2.574.012,5.149.013,7.724ZM66.233,67.036c.203,0,.406,0,.609,0,3.314,0,3.376-.085,3.048-3.357-.065-.652-.28-.988-.973-.981-1.556.017-3.116-.046-4.667.041-.475.027-1.25.353-1.332.68-.252,1.011-.468,2.136-.256,3.124.188.879,1.266.393,1.949.479.533.067,1.081.013,1.622.013Z" fill="#161616"/>
      <path d="M117.741,57.328c1.704,0,3.408-.003,5.112.002.476.002.96-.017,1.428.053,1.672.252,2.564,1.208,2.531,2.656-.036,1.583-1.007,2.574-2.785,2.622-2.452.067-4.907.016-7.36.016-.477,0-.955-.013-1.431.002-1.387.045-1.409.121-1.42,1.557-.007.865.293,1.205,1.18,1.186,1.976-.042,3.953-.04,5.929-.003,1.548.029,2.435.827,2.65,2.264.224,1.499-.673,2.692-2.232,2.772-1.7.087-3.407.033-5.11.041-.273.001-.552-.038-.816.008-.545.094-1.32-.339-1.547.539-.22.853.536,2.022,1.42,2.132.874.11,1.767.079,2.652.086,1.636.013,3.273-.029,4.907.027.808.027,1.639.13,2.41.361.98.294,1.669,1.552,1.581,2.603-.104,1.233-.965,2.284-2.18,2.305-3.406.058-6.83.205-10.216-.068-3.532-.284-5.624-2.755-5.691-6.286-.076-3.999-.05-8-.027-11.999.012-1.966.84-2.797,2.883-2.86,2.043-.063,4.089-.014,6.134-.014v-.004Z" fill="#161616"/>
    </g>
    <g>
      <path d="M123.033,102.541c-.461.646-1.068.983-1.887.932-1.04-.066-1.642-.599-1.711-1.646-.052-.782-.032-1.569-.018-2.354.009-.507-.225-.692-.715-.688-1.381.012-2.761.013-4.142-.004-.539-.007-.667.277-.66.737.01.687.02,1.374-.009,2.06-.049,1.13-.655,1.801-1.657,1.887-1.144.097-1.852-.423-2.119-1.558-.022-.095-.068-.19-.067-.285.027-3.279-.31-6.571.241-9.831.317-1.873,1.652-3.09,3.556-3.455,2.495-.478,5.012-.208,7.517-.179.56.007,1.114.537,1.671.827v13.557ZM116.688,95.106v.003c.197,0,.393,0,.59,0,2.31-.001,2.294,0,2.147-2.346-.034-.539-.184-.81-.765-.797-1.081.023-2.164-.032-3.243.021-1.259.061-2.123,1.804-1.435,2.874.099.155.42.224.643.234.687.029,1.376.011,2.064.011Z" fill="#161616"/>
      <path d="M94.878,93.424c0-2.403-.003-4.806.003-7.209.001-.39-.005-.791.078-1.169.234-1.067.932-1.566,2.029-1.507,1.131.061,1.674.576,1.769,1.752.047.585,0,1.177.018,1.765.029.983.036,1,.983,1.021,1.035.022,2.073-.038,3.105.023,1.339.078,2.684.286,3.642,1.332.517.564,1.087,1.244,1.231,1.952.464,2.276.658,4.603-.818,6.638-.477.658-.518,1.092.075,1.613.635.558.899,1.295.831,2.106-.066.779-.428,1.408-1.27,1.622-.932.236-1.797.107-2.409-.671-.727-.924-1.393-1.899-2.051-2.875-.364-.539-.738-.953-1.42-1.174-.902-.293-1.251-1.176-1.068-2.166.173-.941.667-1.325,1.779-1.369.492-.019.993.032,1.476-.041,1.021-.155,1.622-1.079,1.38-2.041-.183-.728-.528-1.029-1.377-1.056-1.083-.035-2.169.01-3.253-.023-.657-.02-.848.278-.844.883.016,2.55.006,5.1.004,7.65,0,.392.027.789-.02,1.176-.146,1.2-.915,1.852-2.094,1.813-1.008-.033-1.644-.657-1.76-1.806-.058-.583-.021-1.176-.021-1.764-.001-2.158,0-4.315,0-6.473Z" fill="#161616"/>
      <path d="M92.864,95.759c0,1.962.032,3.924-.011,5.884-.028,1.276-.907,1.972-2.15,1.814-.997-.127-1.462-.609-1.52-1.645-.038-.685-.013-1.373-.028-2.059-.014-.638-.283-.991-.993-.974-1.232.029-2.465.032-3.697-.004-.686-.02-.829.318-.811.9.022.685.051,1.379-.026,2.058-.138,1.225-.901,1.801-2.121,1.739-.783-.04-1.319-.404-1.548-1.134-.129-.412-.194-.859-.197-1.292-.017-2.501-.009-5.002-.005-7.503,0-.293-.003-.593.051-.879.499-2.675,1.38-4.297,5.189-4.548,1.865-.123,3.746-.047,5.618-.013,1.699.03,2.241.622,2.25,2.361.009,1.765.002,3.531.002,5.296h-.002ZM86.195,95.107v-.005c.687,0,1.374-.011,2.061.004.487.01.726-.197.724-.689-.002-.586-.039-1.178.036-1.755.065-.5-.015-.716-.573-.7-1.128.031-2.26-.032-3.384.035-.395.024-1.034.241-1.109.499-.208.72-.347,1.544-.194,2.26.137.643.919.268,1.411.341.336.05.686.01,1.029.01Z" fill="#161616"/>
      <path d="M55.422,92.78c0-2.012.058-4.025-.016-6.034-.075-2.023,1.383-2.154,2.664-1.887.707.147,1,.712,1.04,1.43.032.571-.058,1.364.267,1.645.351.303,1.122.126,1.709.155.393.02.797-.015,1.179.061,1.1.217,1.599.872,1.561,1.974-.034.993-.56,1.639-1.611,1.782-.727.099-1.477.065-2.215.044-.6-.017-.907.157-.895.822.03,1.668-.03,3.337.025,5.004.049,1.493.387,1.768,1.862,1.843.489.025.986.06,1.459.174,1.08.261,1.428.776,1.379,1.916-.043,1.006-.518,1.692-1.456,1.717-1.218.033-2.481.024-3.655-.255-1.977-.471-3.195-2.173-3.286-4.207-.004-.098-.006-.196-.006-.294,0-1.962,0-3.925,0-5.887-.002,0-.003,0-.005,0Z" fill="#161616"/>
      <path d="M65.818,97.369c0-1.276-.044-2.554.016-3.827.036-.775.141-1.57.373-2.307.692-2.195,2.478-2.96,4.56-3.106,1.669-.117,3.354-.071,5.029-.009,1.37.051,1.933.689,1.959,2.046.019.981.033,1.964-.009,2.944-.042.995-.693,1.646-1.654,1.749-.888.096-1.732-.482-2.011-1.38-.029-.093-.052-.19-.065-.287-.051-.375.031-.956-.172-1.08-.332-.203-.847-.122-1.285-.137-.443-.015-.889-.019-1.332.002-1.14.054-1.479.37-1.497,1.536-.03,2.011-.008,4.023-.013,6.035-.002.736.055,1.48-.038,2.205-.183,1.413-1.425,2.139-2.713,1.611-.747-.306-1.154-.894-1.144-1.727.001-.098-.002-.196-.002-.294,0-1.325,0-2.65,0-3.975Z" fill="#161616"/>
    </g>
    <g>
      <path d="M36.238,40.462c-.003.909-.011,1.817-.009,2.726.002.683-.319,1.018-1.019,1.034-4.034.096-7.296,1.997-10.053,4.674-2.093,2.032-3.186,4.726-3.707,7.61-.099.548-.293,1.086-.328,1.636-.065,1.023-.65,1.208-1.55,1.226-2.297.046-2.663-.224-2.296-2.462.645-3.93,2.135-7.45,4.992-10.397,2.931-3.024,6.302-5.072,10.503-5.706.182-.027.339-.224.507-.341.986,0,1.972,0,2.958,0Z" fill="#161616"/>
      <path d="M26.251,59.356c-1.833-.007-2.157-.341-1.747-2.091.9-3.844,2.73-7.054,6.545-8.712,1.076-.468,2.263-.757,3.429-.923,1.512-.215,1.724.049,1.749,1.526.005.28-.01.56-.01.84,0,.568-.237.902-.841.995-.553.085-1.094.248-1.638.387-3.097.792-5.223,3.238-5.543,6.372q-.165,1.612-1.943,1.606Z" fill="#161616"/>
      <path d="M36.235,55.578c-.049.114-.112.743-.438.938-.964.576-1.575,1.276-1.869,2.39-.068.26-1.083.379-1.661.372-.658-.008-.671-.602-.646-1.105.098-1.931,1.564-3.527,3.543-3.869.971-.168,1.093-.065,1.07,1.274Z" fill="#161616"/>
    </g>
  </g>
</svg>