<?xml version="1.0" encoding="UTF-8"?>
<svg id="Layer_1" xmlns="http://www.w3.org/2000/svg" version="1.1" viewBox="0 0 144 144">
  <!-- Generator: Adobe Illustrator 29.8.1, SVG Export Plug-In . SVG Version: 2.1.1 Build 2)  -->
  <polygon points="144 0 0 0 0 0 .168 144 144 144 144 0" fill="#f05822"/>
  <g>
    <path d="M55.802,59.13c1.038-1.609,1.733-3.359,2.116-5.229.27-1.318.305-2.657.236-3.997-.019-.377.094-.621.411-.849,2.592-1.863,5.372-3.384,8.33-4.572,1.855-.745,3.754-1.361,5.708-1.802.189-.043.428-.162.509-.316.121-.23-.161-.355-.293-.512-.023-.027-.052-.049-.08-.071-.601-.477-1.189-.97-1.805-1.426-1.608-1.189-3.29-2.261-5.053-3.209-1.543-.829-3.136-1.546-4.77-2.17-2.506-.958-5.095-1.624-7.736-2.088-.19-.033-.431.022-.602.118-.714.403-1.428.811-2.11,1.265-.95.633-1.875,1.302-2.802,1.969-.281.202-.546.273-.896.18-.584-.155-1.18-.294-1.779-.365-2.574-.309-5.092-.088-7.529.853-1.717.664-3.262,1.611-4.634,2.827-2.033,1.802-3.472,4.01-4.328,6.588-.417,1.256-.678,2.546-.748,3.872-.079,1.49.068,2.955.429,4.401.365,1.464.92,2.849,1.702,4.142.659,1.089,1.42,2.098,2.343,2.978.266.254.366.536.333.91-.142,1.616-.261,3.233-.36,4.491.059,1.33.055,2.297.155,3.254.165,1.577.337,3.157.616,4.717.377,2.109.98,4.164,1.725,6.177.894,2.419,2.029,4.716,3.37,6.916,1.474,2.418,3.226,4.622,5.167,6.678.172.183.355.494.66.282.259-.181.083-.476.007-.692-.605-1.72-1.053-3.48-1.409-5.266-.346-1.735-.615-3.488-.668-5.252-.058-1.942-.004-3.89.081-5.832.08-1.82.412-3.611.814-5.39.457-2.022,1.057-3.997,1.814-5.926.31-.79.307-.791,1.165-.937,1.801-.306,3.468-.974,5.016-1.925,1.99-1.224,3.626-2.822,4.895-4.79v-.002Z" fill="#fff"/>
    <path d="M109.499,78.016c-.166.132-.309.297-.448.459-1.243,1.458-2.639,2.767-4.092,4.004-1.89,1.611-3.929,3.022-6.096,4.249-2.619,1.483-5.358,2.674-8.239,3.542-1.969.593-3.974,1.014-6.004,1.334-.374.059-.606-.08-.841-.33-.598-.635-1.171-1.302-1.826-1.875-1.106-.967-2.343-1.753-3.699-2.33-1.482-.631-3.01-1.09-4.627-1.245-1.343-.129-2.679-.104-4.002.122-2.155.368-4.154,1.156-5.958,2.405-.333.231-.634.261-.993.068-1.35-.724-2.732-1.393-4.058-2.158-3.112-1.796-5.856-4.064-8.336-6.658-.184-.193-.334-.466-.651-.366-.316.1-.298.43-.327.679-.195,1.629-.431,3.256-.536,4.891-.162,2.518-.016,5.032.326,7.532.398,2.911,1.173,5.727,2.166,8.485.09.249.287.524.512.649,1.232.684,2.483,1.334,3.737,1.976.475.243.975.44,1.469.644.322.134.549.325.563.702.003.087.039.174.064.259.931,3.212,2.75,5.831,5.397,7.847,2.697,2.054,5.775,3.067,9.419,3.098.252-.02.75-.057,1.247-.097,1.988-.162,3.846-.768,5.594-1.701,1.75-.935,3.252-2.181,4.518-3.717,1.372-1.665,2.36-3.527,2.904-5.611.134-.512.402-.791.865-.985.723-.304,1.437-.631,2.141-.979,3.255-1.607,6.21-3.663,8.887-6.103,2.395-2.183,4.496-4.629,6.291-7.337,1.067-1.61,2.018-3.28,2.855-5.019.915-1.902,1.633-3.879,2.26-5.891.026-.085.067-.18.05-.26-.032-.145-.071-.316-.17-.407-.047-.043-.262.044-.361.123h-.001Z" fill="#fff"/>
    <path d="M115.139,45.828c-.594-1.625-1.451-3.095-2.559-4.422-1.19-1.425-2.574-2.618-4.199-3.524-2.057-1.147-4.252-1.822-6.611-1.935-1.524-.073-3.037.029-4.51.43-.546.149-.973.074-1.362-.316-.037-.037-.088-.061-.13-.094-2.491-1.907-5.185-3.472-8.056-4.725-2.178-.95-4.427-1.69-6.747-2.225-2.953-.681-5.942-.993-8.241-1.017-3.214,0-5.677.268-8.122.714-.701.128-1.393.31-2.087.472-.206.048-.465.079-.445.365.019.271.268.297.482.336.035.006.07.013.105.022,1.366.342,2.75.626,4.095,1.037,3.083.943,6.013,2.256,8.777,3.912,2.594,1.554,4.997,3.365,7.159,5.493,1.376,1.354,2.682,2.766,3.894,4.267.278.344.384.664.204,1.122-.641,1.627-.919,3.333-.964,5.076-.049,1.879.31,3.692.954,5.45.76,2.077,1.945,3.889,3.496,5.454,1.163,1.173,2.496,2.131,3.982,2.858.377.185.52.457.541.841.04.748.116,1.496.116,2.245,0,1.302-.026,2.604-.086,3.904-.045.979-.108,1.962-.254,2.929-.301,1.993-.661,3.978-1.293,5.901-.039.118-.067.243-.072.366-.011.302.14.433.43.382.087-.015.169-.055.253-.087,2.328-.868,4.582-1.894,6.718-3.167,2.072-1.234,4.023-2.635,5.855-4.21,1.725-1.483,3.274-3.126,4.749-4.849.252-.294.35-.593.352-.969.007-1.698-.067-3.39-.307-5.072-.06-.424.018-.744.333-1.057,1.526-1.516,2.68-3.277,3.45-5.294.76-1.992,1.143-4.039,1.013-6.176-.093-1.524-.384-3.004-.909-4.439l-.004.002Z" fill="#fff"/>
  </g>
</svg>