<?xml version="1.0" encoding="UTF-8"?>
<svg id="Layer_1" xmlns="http://www.w3.org/2000/svg" version="1.1" viewBox="0 0 144 144">
  <!-- Generator: Adobe Illustrator 29.8.1, SVG Export Plug-In . SVG Version: 2.1.1 Build 2)  -->
  <polygon points="144 0 0 0 0 0 .168 144 144 144 144 0" fill="#fff"/>
  <g>
    <path d="M76.523,72.503h-8.04c-.343,0-.676-.027-1.006-.067h8.036c.343,0,.681.027,1.01.067Z" fill="none"/>
    <g>
      <path d="M105.142,26.927v39.752c0,1.735-.383,3.377-1.068,4.854-2.607-3.52-6.785-5.802-11.502-5.802h-8.908V18.161s11.991,1.655,21.478,8.765Z" fill="#005a7e"/>
      <path d="M83.175,78.265h-31.747c-4.716,0-8.899-2.278-11.506-5.798-1.762-2.38-2.803-5.322-2.803-8.512v-16.454l23.409,6.607v10.438c0,.405.04.796.098,1.184.525,3.502,3.324,6.256,6.852,6.705.329.04.663.067,1.006.067h8.04c3.204.409,5.807,2.719,6.652,5.762Z" fill="#005a7e"/>
    </g>
    <g>
      <path d="M60.331,78.265v47.574s-11.991-1.655-21.473-8.77v-39.747c0-1.735.383-3.377,1.063-4.854,2.607,3.52,6.79,5.798,11.506,5.798h8.903Z" fill="#009bcf"/>
      <path d="M106.882,80.045v10.839c0,8.12-6.581,14.701-14.697,14.701,0,0-15.635.641-19.724,0-4.089-.645-6.091-7.297-6.091-7.297,11.546,0,17.099-2.501,17.099-6.848v-11.048c0-.739-.107-1.446-.294-2.127-.845-3.043-3.448-5.353-6.652-5.762-.329-.04-.667-.067-1.01-.067h-8.036c-3.528-.449-6.327-3.204-6.852-6.705h31.947c4.716,0,8.894,2.283,11.502,5.802,1.766,2.38,2.808,5.322,2.808,8.512Z" fill="#009bcf"/>
    </g>
  </g>
</svg>