<?xml version="1.0" encoding="UTF-8"?>
<svg id="Layer_1" xmlns="http://www.w3.org/2000/svg" version="1.1" viewBox="0 0 144 144">
  <!-- Generator: Adobe Illustrator 29.8.1, SVG Export Plug-In . SVG Version: 2.1.1 Build 2)  -->
  <polygon points="144 0 0 0 0 0 .168 144 144 144 144 0" fill="#ec1c24"/>
  <g>
    <path d="M52.159,43.181c2.83,8.554,5.657,17.11,8.519,25.653.267.796.294,1.481.019,2.28-1.906,5.532-3.768,11.079-5.644,16.621-2.632,7.776-5.26,15.554-7.897,23.328-.849,2.503-1.721,4.998-2.571,7.501-.023.068.077.251.139.261.234.037.476.029.715.029,5.699,0,11.398,0,17.097,0,.192,0,.384-.013.574.002.344.027.528-.136.616-.456.063-.227.156-.444.229-.668,1.144-3.496,2.292-6.99,3.431-10.488,1.445-4.44,2.881-8.883,4.333-13.32.044-.134.231-.222.352-.331.074.108.178.206.216.325.459,1.437.898,2.88,1.362,4.315,1.77,5.475,3.544,10.949,5.323,16.422.394,1.212.815,2.414,1.226,3.62.185.544.478.935,1.144.827.187-.03.382-.005.574-.005,5.364,0,10.728,0,16.091,0,.287,0,.576.016.862-.006.583-.044.659-.208.42-.824-.103-.264-.2-.531-.292-.799-1.426-4.15-2.865-8.295-4.272-12.451-2.604-7.687-5.194-15.379-7.78-23.072-1.172-3.488-2.265-7.004-3.516-10.463-.362-1.002-.371-1.795-.034-2.805,4.479-13.424,8.897-26.867,13.334-40.304.325-.985.661-1.968,1.018-2.942.136-.371.062-.541-.339-.542-.335-.001-.67,0-1.006,0-2.586,0-5.172,0-7.758,0-2.826,0-5.651-.004-8.477.002-.954.002-.983.058-1.25.975-.711,2.442-1.435,4.88-2.167,7.316-.597,1.985-1.214,3.964-1.821,5.946-.119.387.015.618.403.765.399.151.78.354,1.157.557,1.635.88,2.941,2.115,3.768,3.777.87,1.747,1.349,3.519,1.019,5.582-.54,3.372-2.4,5.655-5.311,7.078-2.361,1.155-4.885,1.198-7.387.211-2.52-.994-4.242-2.735-5.257-5.247-.564-1.394-.676-2.805-.546-4.272.211-2.382,1.282-4.297,3.061-5.87.868-.768,1.83-1.368,2.875-1.836.408-.182.461-.417.346-.784-.547-1.753-1.107-3.503-1.633-5.263-.796-2.664-1.572-5.333-2.345-8.004-.261-.901-.276-.94-1.277-.941-3.831-.005-7.663-.002-11.494-.002-1.82,0-3.64-.007-5.46.003-.711.004-.716.022-.496.688,1.934,5.87,3.865,11.741,5.806,17.608Z" fill="#fff"/>
    <path d="M65.179,48.54c.085,4.083,2.872,6.376,6.852,6.755,4.001-.428,6.653-2.68,6.795-6.667.139-3.899-3.135-6.643-6.779-6.788-3.622.089-6.95,2.783-6.868,6.7Z" fill="#fff"/>
    <path d="M46.85,24.885c1.82-.01,3.64-.003,5.46-.003,3.831,0,7.663-.003,11.494.002,1.002.001,1.017.04,1.277.941.773,2.671,1.55,5.34,2.345,8.004.526,1.76,1.086,3.509,1.633,5.263.114.367.062.601-.346.784-1.045.467-2.007,1.068-2.875,1.836-1.779,1.572-2.85,3.487-3.061,5.87-.13,1.466-.017,2.878.546,4.272,1.015,2.512,2.737,4.253,5.257,5.247,2.502.987,5.026.943,7.387-.211,2.91-1.423,4.77-3.707,5.311-7.078.331-2.063-.149-3.835-1.019-5.582-.827-1.661-2.134-2.897-3.768-3.777-.377-.203-.758-.406-1.157-.557-.388-.147-.522-.378-.403-.765.607-1.982,1.224-3.961,1.821-5.946.732-2.436,1.456-4.874,2.167-7.316.267-.918.296-.973,1.25-.975,2.826-.006,5.651-.002,8.477-.002,2.586,0,5.172,0,7.758,0,.335,0,.67,0,1.006,0,.4.001.475.171.339.542-.357.974-.692,1.957-1.018,2.942-4.437,13.438-8.856,26.881-13.334,40.304-.337,1.011-.329,1.803.034,2.805,1.251,3.459,2.343,6.976,3.516,10.463,2.586,7.693,5.176,15.385,7.78,23.072,1.408,4.156,2.846,8.301,4.272,12.451.092.268.19.534.292.799.239.616.163.779-.42.824-.286.022-.574.006-.862.006-5.364,0-10.728,0-16.091,0-.192,0-.387-.026-.574.005-.667.109-.959-.283-1.144-.827-.411-1.206-.832-2.409-1.226-3.62-1.779-5.472-3.553-10.946-5.323-16.422-.464-1.435-.903-2.878-1.362-4.315-.038-.119-.142-.217-.216-.325-.12.109-.308.197-.352.331-1.453,4.437-2.888,8.88-4.333,13.32-1.139,3.498-2.286,6.992-3.431,10.488-.073.224-.166.442-.229.668-.088.32-.272.483-.616.456-.19-.015-.383-.002-.574-.002-5.699,0-11.398,0-17.097,0-.239,0-.481.007-.715-.029-.062-.01-.162-.193-.139-.261.85-2.503,1.722-4.998,2.571-7.501,2.637-7.775,5.265-15.552,7.897-23.328,1.876-5.542,3.738-11.089,5.644-16.621.275-.799.248-1.484-.019-2.28-2.862-8.544-5.689-17.099-8.519-25.653-1.941-5.868-3.872-11.738-5.806-17.608-.219-.666-.215-.684.496-.688ZM72.047,41.84c3.644.145,6.918,2.889,6.779,6.788-.142,3.988-2.794,6.24-6.795,6.667-3.98-.379-6.767-2.672-6.852-6.755-.081-3.917,3.246-6.61,6.868-6.7Z" fill="#fff"/>
  </g>
</svg>