<?xml version="1.0" encoding="UTF-8"?>
<svg id="Layer_1" xmlns="http://www.w3.org/2000/svg" version="1.1" viewBox="0 0 144 144">
  <!-- Generator: Adobe Illustrator 29.8.1, SVG Export Plug-In . SVG Version: 2.1.1 Build 2)  -->
  <polygon points="-.187 0 -.187 0 -.019 144 .203 144 143.992 0 -.187 0" fill="#1a3462"/>
  <polygon points=".203 144 144 144 144.008 0 143.992 0 .203 144" fill="#134678"/>
  <g>
    <path d="M83.485,69.055c-1.635,4.548-4.938,7.523-9.824,8.852.087.61.172,1.216.255,1.814.1.719.2,1.437.304,2.155.253,1.755.509,3.51.765,5.265.298,2.045.596,4.091.89,6.136.253,1.757.751,3.105,1.569,4.244.253.353,2.673,3.1,3.884,4.471,1.573-1.492,4.889-4.643,5.08-4.861,1.181-1.353,1.998-2.978,2.495-4.966,2.479-9.901,4.882-19.578,6.968-27.997-.052,0-7.935.02-7.935.02,0,0,.544-2.139,1.054-4.153l-4.125,3.931c-.257,1.032-.514,2.065-.773,3.096-.169.672-.373,1.342-.606,1.992Z" fill="#134678"/>
    <path d="M57.266,54.31h-4.98c-.902-.001-1.804,0-2.707,0-.828,3.328-1.659,6.655-2.49,9.981l-.233.934h4.474c3.484,0,6.967,0,10.451-.001.223,0,.418-.001.559-.015.063-.006.108-.015.138-.023.002-.004.004-.008.006-.012.224-.503.412-1.041.559-1.598.53-2.015,1.022-4.018,1.522-6.064.084-.344.171-.687.258-1.03.19-.749.371-1.468.518-2.171-.918,0-1.836-.001-2.754-.001h-5.32Z" fill="#1a3462"/>
    <path d="M106.104,44.529c.298-.17.683-.262,1.028-.263,6.077-.016,12.153-.011,18.23-.011.078,0,.156-.002.234.002.542.031.598.08.302.525-1.973,2.966-2.695,6.388-3.529,9.757-3.173,12.817-6.306,25.644-9.45,38.468-.336,1.368-.534,2.76-.389,4.168.068.663.239,1.324.434,1.964.201.659.238.659-.484.66-3.947.004-7.895.002-11.842.002-3.895,0-7.791.002-11.686-.005-.246,0-.492-.069-.738-.106.141-.204.264-.424.426-.61,1.571-1.8,2.563-3.902,3.138-6.195,2.558-10.217,5.096-20.438,7.629-30.661.248-1.002.485-1.026-.838-1.023-2.026.005-4.051.004-6.077,0-.703-.002-.716-.014-.553-.677.355-1.44.714-2.879,1.071-4.319l-4.02,3.831c-.511,2.014-1.054,4.153-1.054,4.153,0,0,7.883-.02,7.935-.02-2.086,8.418-4.489,18.096-6.968,27.997-.498,1.988-1.314,3.612-2.495,4.966-.191.218-3.508,3.369-5.08,4.861-1.211-1.371-3.631-4.119-3.884-4.471-.818-1.139-1.317-2.488-1.569-4.244-.294-2.046-.592-4.091-.89-6.136-.256-1.755-.511-3.51-.765-5.265-.104-.718-.204-1.437-.304-2.155-.083-.597-.168-1.203-.255-1.814,4.887-1.329,8.19-4.304,9.824-8.852.234-.65.438-1.32.606-1.992.259-1.032.516-2.064.773-3.096l-4.115,3.921c-.019.055-.035.11-.055.165-1.301,3.62-3.847,5.768-7.296,6.839l-2.792,2.66c.232,1.582.449,3.165.677,4.747.549,3.8,1.108,7.599,1.655,11.4.289,2.007.901,3.887,2.096,5.551.094.131.126.307.186.462-.173.029-.347.084-.52.084-1.636.007-3.272.005-4.908.005-3.999,0-7.998,0-11.998,0-.905,0-.912-.003-1.03-.846-.338-2.416-.675-4.832-1.013-7.249l-2.688,2.561c.633,4.648,1.158,8.499,1.158,8.499,0,0,2.838-.001,3.571,0,1.993,0,3.985,0,5.978,0h54.755l-2.524-4.154c-.142-.233-.251-.484-.323-.746-.088-.32-.168-.67-.201-.993-.092-.893.01-1.897.319-3.16l2.002-8.173c2.433-9.93,4.948-20.198,7.446-30.289.071-.285.14-.57.21-.856.715-2.924,1.39-5.686,2.91-7.972l3.044-5.134-5.647.007c-.094-.005-.187-.007-.281-.007h-16.82l-4.68,4.46c.708-.406,1.413-.816,2.121-1.221Z" fill="#fff"/>
    <path d="M70.871,75.479c-.423.054-.542.202-.471.657.074.471.139.944.208,1.416l2.792-2.66c-.4.124-.808.237-1.232.333-.43.097-.861.199-1.297.255Z" fill="#fff"/>
    <path d="M91.621,49.483s-1.341,5.416-1.788,7.214c-.11.441-.468,1.856-.844,3.339l4.02-3.831c.355-1.431.709-2.862,1.055-4.294.096-.395.299-.625.633-.817,3.095-1.78,6.187-3.565,9.284-5.343l4.68-4.46h-2.917l-14.125,8.193Z" fill="#fff"/>
    <path d="M54.375,81.84c-.266-1.902-.529-3.804-.801-5.704-.117-.819-.126-.825-.977-.825-3.506-.003-7.012-.003-10.517,0-.779,0-.791.005-.962.694-1.461,5.865-2.926,11.729-4.371,17.597-.442,1.797-.644,3.626-.576,5.482.025.695.008.712-.661.713-5.661.005-11.323.005-16.984,0-.638,0-.683-.055-.432-.503,1.503-2.68,2.279-5.608,3.012-8.561,3.256-13.118,6.537-26.231,9.807-39.346.542-2.174.919-4.37.778-6.623-.025-.393.077-.597.503-.562.206.017.415.001.623.001,7.271,0,14.543,0,21.814,0,7.09,0,14.179,0,21.269,0,1.596,0,3.164.191,4.654.79,2.427.977,3.73,2.798,3.951,5.395.131,1.542-.065,3.054-.442,4.551-.956,3.798-1.893,7.602-2.848,11.4-.131.522-.289,1.038-.466,1.547l4.115-3.921c.198-.795.398-1.59.595-2.385.491-1.973.982-3.946,1.479-5.918.498-1.979.669-3.786.521-5.525-.315-3.714-2.374-6.517-5.798-7.895-1.68-.676-3.564-1.005-5.76-1.005l-47.489-.005s.238,2.382.321,3.715c.101,1.62-.113,3.384-.696,5.721-1.008,4.041-2.016,8.082-3.025,12.123-2.227,8.922-4.53,18.148-6.783,27.226-.724,2.918-1.429,5.521-2.721,7.825-.834,1.488-2.92,4.922-2.92,4.922h26.77s-.204-3.211-.225-3.79c-.057-1.54.109-3.11.492-4.665,1.229-4.993,2.494-10.068,3.718-14.976l.264-1.061c1.268,0,2.536-.001,3.804-.001,1.157,0,2.315,0,3.472,0,.074.527,1.247,9.13,2.182,15.993l2.688-2.561c-.459-3.288-.919-6.577-1.378-9.865Z" fill="#fff"/>
    <path d="M66.148,51.346c-2.961-.004-5.922,0-8.883,0-3.065,0-6.13-.004-9.194.003-.799.002-.779-.125-1.012.812-1.258,5.061-2.524,10.12-3.787,15.18-.211.846-.212.849.667.849,5.948,0,11.895,0,17.843,0,.285,0,.572-.002.856-.031,1.178-.119,2.069-.69,2.553-1.778.294-.66.534-1.352.718-2.051.534-2.032,1.036-4.073,1.535-6.114.345-1.41.74-2.815.974-4.244.327-1.991-.265-2.621-2.27-2.624ZM64.822,56.481c-.087.343-.174.687-.258,1.03-.5,2.046-.992,4.049-1.522,6.064-.146.557-.334,1.095-.559,1.598-.002.004-.004.009-.006.012-.03.007-.075.016-.138.023-.141.014-.336.015-.559.015-3.484.001-6.967.001-10.451.001h-4.474s.233-.934.233-.934c.831-3.327,1.662-6.654,2.49-9.981.902,0,1.804-.001,2.707-.001h4.98s5.32,0,5.32,0c.918,0,1.836,0,2.754.001-.146.703-.328,1.422-.518,2.171Z" fill="#fff"/>
    <path d="M80.695,68.052c.02-.054.036-.11.055-.165l-7.35,7.004c3.449-1.071,5.994-3.219,7.296-6.839Z" fill="#ba1e37"/>
    <path d="M56.766,98.954c.118.844.125.846,1.03.846,3.999.001,7.999,0,11.998,0,1.636,0,3.272.002,4.908-.005.173,0,.347-.055.52-.084-.061-.155-.092-.331-.186-.462-1.195-1.664-1.807-3.544-2.096-5.551-.547-3.801-1.106-7.599-1.655-11.4-.228-1.582-.446-3.166-.677-4.747l-14.854,14.154c.337,2.416.674,4.833,1.013,7.249Z" fill="#ba1e37"/>
    <path d="M84.064,54.94c.377-1.497.573-3.008.442-4.551-.22-2.598-1.523-4.419-3.951-5.395-1.49-.599-3.058-.79-4.654-.79-7.09,0-14.179,0-21.269,0-7.271,0-14.543,0-21.814,0-.208,0-.417.016-.623-.001-.427-.035-.528.17-.503.562.141,2.253-.236,4.449-.778,6.623-3.27,13.115-6.551,26.227-9.807,39.346-.733,2.953-1.51,5.881-3.012,8.561-.252.449-.206.503.432.503,5.661.005,11.323.005,16.984,0,.669,0,.687-.018.661-.713-.068-1.856.133-3.685.576-5.482,1.445-5.869,2.91-11.733,4.371-17.597.172-.689.184-.694.962-.694,3.506-.003,7.012-.003,10.517,0,.85,0,.859.006.977.825.272,1.901.535,3.803.801,5.704.459,3.288.919,6.577,1.378,9.865l14.854-14.154c-.069-.472-.134-.945-.208-1.416-.071-.455.048-.603.471-.657.436-.056.867-.158,1.297-.255.423-.096.832-.209,1.232-.333l7.35-7.004c.177-.508.335-1.025.466-1.547.955-3.799,1.892-7.602,2.848-11.4ZM68.418,53.97c-.235,1.43-.63,2.834-.974,4.244-.499,2.041-1,4.082-1.535,6.114-.184.699-.424,1.391-.718,2.051-.485,1.088-1.375,1.659-2.553,1.778-.284.029-.571.03-.856.031-5.948.002-11.895.002-17.843,0-.878,0-.878-.003-.667-.849,1.263-5.06,2.529-10.119,3.787-15.18.233-.938.213-.811,1.012-.812,3.065-.006,6.13-.003,9.194-.003,2.961,0,5.922-.003,8.883,0,2.004.003,2.596.632,2.27,2.624Z" fill="#ba1e37"/>
    <path d="M92.492,61.201c2.026.005,4.051.006,6.077,0,1.323-.003,1.086.021.838,1.023-2.532,10.223-5.071,20.445-7.629,30.661-.574,2.293-1.566,4.395-3.138,6.195-.162.186-.285.406-.426.61.246.037.492.106.738.106,3.895.007,7.791.005,11.686.005,3.947,0,7.895.002,11.842-.002.723,0,.685,0,.484-.66-.195-.64-.366-1.301-.434-1.964-.145-1.408.054-2.8.389-4.168,3.144-12.824,6.277-25.651,9.45-38.468.834-3.369,1.556-6.79,3.529-9.757.296-.445.24-.494-.302-.525-.078-.004-.156-.002-.234-.002-6.077,0-12.153-.004-18.23.011-.345,0-.731.093-1.028.263-.708.405-1.414.815-2.121,1.221l-10.972,10.455c-.357,1.439-.716,2.878-1.071,4.319-.163.663-.15.675.553.677Z" fill="#ba1e37"/>
    <path d="M94.699,51.093c-.334.192-.538.422-.633.817-.346,1.433-.7,2.864-1.055,4.294l10.972-10.455c-3.096,1.778-6.189,3.563-9.284,5.343Z" fill="#ba1e37"/>
  </g>
</svg>