<?xml version="1.0" encoding="UTF-8"?>
<svg id="Layer_1" xmlns="http://www.w3.org/2000/svg" version="1.1" viewBox="0 0 144 144">
  <!-- Generator: Adobe Illustrator 29.8.1, SVG Export Plug-In . SVG Version: 2.1.1 Build 2)  -->
  <path d="M0,92.99c12.923,8.51,36.017,19.871,67.223,19.871,46.777,0,73.608-21.668,76.777-24.375v55.514H0v-51.01Z" fill="#e73f24"/>
  <path d="M0,0v86.492c4.083,1.526,38.786,14.069,70.139,11.848,33.119-2.346,60.14-20.665,73.861-51.312l.058-47.029H0ZM63.054,31.236c2.229-.073,4.463-.018,6.694-.018v-.015c1.785,0,3.583.14,5.353-.036,2.136-.213,3.242.848,4.15,2.693,2.51,5.099,5.125,10.141,7.723,15.192.746,1.451,1.169,1.459,1.919-.012,2.509-4.923,5.074-9.821,7.413-14.832,1.058-2.268,2.406-3.188,4.853-3.056,3.858.209,7.734.026,11.601.079,1.896.026,2.125.457,1.095,2.158-4.205,6.945-8.468,13.852-12.684,20.79-1.909,3.14-4.47,6.102-5.436,9.542-1.178,4.198.042,9.134-.505,13.513-.184,1.474-.096,2.967.074,4.442.271,2.34-.091,3.673-2.203,3.643-3.421-.049-6.845.056-10.265-.035-3.362-.09-2.544-.61-2.774-7.508-.111-3.321-.053-6.653.083-9.973.125-3.062-.615-5.649-2.18-8.19-4.591-7.457-9.452-14.754-13.759-22.378-.767-1.358-1.684-2.636-2.394-4.028-.686-1.345-.345-1.918,1.241-1.97ZM48.742,85.315c-5.97.134-11.497-1.243-16.258-5.201-.693-.576-1.427-1.142-1.981-1.85-1.408-1.794-1.42-2.819.093-4.458,1.44-1.561,3.017-2.988,4.579-4.421,1.006-.923,2.089-1.032,3.236-.14.952.74,1.957,1.412,2.973,2.055,2.934,1.859,6.122,2.348,9.444,1.627,1.145-.248,2.334-.785,2.519-2.281.207-1.68-.712-2.61-2.132-3.065-2.127-.681-4.271-1.302-6.406-1.954-3.894-1.188-7.548-2.799-10.364-6.031-4.831-5.545-3.929-15.178,2.102-19.158,2.32-1.531,5.085-2.634,7.787-3.173,7.288-1.453,14.208-.419,20.201,4.621,2.826,2.376,2.84,3.431.092,5.733-1.158.97-2.312,1.946-3.494,2.883-1.999,1.585-2.66,1.754-4.711.072-1.626-1.333-3.433-1.797-5.321-2.135-.837-.15-1.867-.127-2.585.265-.816.445-1.624,1.295-1.938,2.164-.13.359.924,1.531,1.628,1.804,1.935.752,4.023,1.078,5.953,1.84,3.038,1.199,6.12,2.381,8.967,3.987,7.955,4.487,8.21,17.422.07,22.965-2.85,1.941-7.839,4.126-14.453,3.851Z" fill="#e73f24"/>
  <path d="M63.694,36.364c4.715,7.709,9.377,15.455,14.183,23.103,1.614,2.568,2.386,5.175,2.272,8.264-.176,4.8-.087,9.613-.025,14.419.036,2.776.278,3.067,2.713,3.132,3.42.091,6.843-.013,10.265.035,1.775.025,2.314-.912,2.28-2.6-.053-2.635-.029-5.272-.003-7.908.036-3.717-.608-7.651.357-11.09.965-3.439,3.527-6.401,5.436-9.542,4.217-6.937,8.48-13.844,12.684-20.79,1.03-1.701.801-2.132-1.095-2.158-3.868-.053-7.744.13-11.601-.079-2.447-.132-3.795.788-4.853,3.056-2.339,5.011-4.904,9.908-7.413,14.832-.75,1.471-1.173,1.463-1.919.012-2.597-5.051-5.213-10.093-7.723-15.192-.908-1.845-2.014-2.906-4.15-2.693-1.769.176-3.567.036-5.353.036v.015c-2.232,0-4.465-.054-6.694.018-1.585.052-1.927.625-1.241,1.97.557,1.091,1.241,2.113,1.88,3.158Z" fill="#fff"/>
  <path d="M63.125,58.499c-2.847-1.606-5.928-2.788-8.967-3.987-1.93-.762-4.018-1.088-5.953-1.84-.704-.274-1.758-1.445-1.628-1.804.314-.869,1.122-1.719,1.938-2.164.718-.392,1.748-.414,2.585-.265,1.888.337,3.696.801,5.321,2.135,2.051,1.682,2.713,1.513,4.711-.072,1.182-.937,2.336-1.913,3.494-2.883,2.748-2.301,2.734-3.357-.092-5.733-5.993-5.039-12.913-6.074-20.201-4.621-2.702.539-5.467,1.642-7.787,3.173-6.03,3.98-6.933,13.613-2.102,19.158,2.816,3.232,6.47,4.843,10.364,6.031,2.135.652,4.28,1.273,6.406,1.954,1.42.455,2.339,1.385,2.132,3.065-.184,1.496-1.373,2.032-2.519,2.281-3.322.721-6.511.231-9.444-1.627-1.016-.644-2.021-1.315-2.973-2.055-1.147-.892-2.23-.783-3.236.14-1.562,1.433-3.139,2.861-4.579,4.421-1.513,1.639-1.501,2.663-.093,4.458.555.707,1.288,1.273,1.981,1.85,4.761,3.958,10.289,5.335,16.258,5.201,6.613.276,11.603-1.91,14.453-3.851,8.14-5.544,7.884-18.478-.07-22.965Z" fill="#fff"/>
  <path d="M70.139,98.34c-31.352,2.221-66.055-10.323-70.139-11.848v6.499c12.923,8.51,36.017,19.871,67.223,19.871,46.777,0,73.608-21.668,76.777-24.375v-41.457c-13.721,30.647-40.742,48.966-73.861,51.312Z" fill="#fff"/>
</svg>