<?xml version="1.0" encoding="UTF-8"?>
<svg id="Layer_1" xmlns="http://www.w3.org/2000/svg" version="1.1" viewBox="0 0 144 144">
  <!-- Generator: Adobe Illustrator 29.8.1, SVG Export Plug-In . SVG Version: 2.1.1 Build 2)  -->
  <polygon points="144 0 0 0 0 0 .168 144 144 144 144 0" fill="#262626"/>
  <g>
    <polygon points="111.268 84.163 94.967 68.632 94.967 64.546 90.677 64.546 89.014 64.546 78.695 64.546 78.695 75.377 78.695 75.377 94.997 90.909 94.997 95.559 94.997 97.083 92.351 97.083 51.841 97.083 49.033 97.083 49.033 79.454 32.762 79.454 32.762 97.083 51.841 113.355 92.351 113.355 111.268 95.559 111.268 84.17 111.262 84.17 111.268 84.163" fill="#b4d836"/>
    <polygon points="32.732 59.837 49.033 75.368 49.033 79.454 53.323 79.454 54.986 79.454 65.305 79.454 65.305 68.623 65.305 68.623 49.003 53.091 49.003 48.441 49.003 46.917 51.649 46.917 92.159 46.917 94.967 46.917 94.967 64.546 111.238 64.546 111.238 46.917 92.159 30.645 51.649 30.645 32.732 48.441 32.732 59.83 32.738 59.83 32.732 59.837" fill="#b4d836"/>
  </g>
</svg>